<svg id="Layer_2" data-name="Layer 2" xmlns="http://www.w3.org/2000/svg" viewBox="0 0 288.35 288.41"><defs><style>.cls-1{fill:#ffc3a9;}.cls-2{fill:none;}.cls-3{fill:#f59171;}.cls-4{fill:#dc5126;}.cls-5{fill:#232d61;}</style></defs><g id="Group_81" data-name="Group 81"><g id="Group_79" data-name="Group 79"><g id="Group_77" data-name="Group 77"><g id="Group_75" data-name="Group 75"><path id="Path_363" data-name="Path 363" class="cls-1" d="M248.87,313.14V259.05a26.84,26.84,0,0,0-15.26-23.9L224,230.4l-36-16.78H135.39l-37.55,17.5a33.73,33.73,0,0,0-14.71,13.09L72.49,261.92V207.43H39.63v84.09c0,10.52,9,19.06,20.11,19.06a20.61,20.61,0,0,0,15.66-7.09l28-32.85V313" transform="translate(-33.86 -28.79)"/><g id="Group_69" data-name="Group 69"><path id="Path_364" data-name="Path 364" class="cls-1" d="M234.41,235.15l-9.09-4.75-34.13-16.78H169.51l34.12,16.78,9.09,4.75a27,27,0,0,1,14.47,23.9v54.07l21.68,0V259.05A27,27,0,0,0,234.41,235.15Z" transform="translate(-33.86 -28.79)"/></g><g id="Group_73" data-name="Group 73"><path id="Path_365" data-name="Path 365" class="cls-1" d="M181.25,187.57l-17.92,8.07-17.92-8.07V156.28h35.84Z" transform="translate(-33.86 -28.79)"/><g id="Group_70" data-name="Group 70"><path id="Path_366" data-name="Path 366" class="cls-1" d="M211.82,127.26H120.7a8.75,8.75,0,0,1,0-17.49h91.12a8.75,8.75,0,1,1,0,17.49Z" transform="translate(-33.86 -28.79)"/><path id="Path_367" data-name="Path 367" class="cls-1" d="M166.26,167.53a41.16,41.16,0,0,1-41.16-41.16v-16.6h82.32v16.6a41.15,41.15,0,0,1-41.16,41.16Z" transform="translate(-33.86 -28.79)"/><path id="Path_368" data-name="Path 368" class="cls-1" d="M185.74,109.77v16.6a41.17,41.17,0,0,1-30.32,39.71,41.19,41.19,0,0,0,52-39.71v-16.6Z" transform="translate(-33.86 -28.79)"/><path id="Path_369" data-name="Path 369" class="cls-1" d="M194.3,32.86H138.22A13.11,13.11,0,0,0,125.1,46v63.79h82.32V46A13.11,13.11,0,0,0,194.3,32.86Z" transform="translate(-33.86 -28.79)"/><path id="Path_370" data-name="Path 370" class="cls-1" d="M194.3,32.86H172.62A13.11,13.11,0,0,1,185.74,46v63.79h21.69V46A13.12,13.12,0,0,0,194.3,32.86Z" transform="translate(-33.86 -28.79)"/><path id="Path_371" data-name="Path 371" class="cls-1" d="M125.1,95.26h82.32v14.51H125.1Z" transform="translate(-33.86 -28.79)"/></g><g id="Group_71" data-name="Group 71"><path id="Path_372" data-name="Path 372" class="cls-1" d="M138.69,185.54l24.93,11.3,24.93-11.3v24l-24.93,11.1-24.93-11.1Z" transform="translate(-33.86 -28.79)"/></g><path id="Path_373" data-name="Path 373" class="cls-2" d="M162.05,201v23.77l-30.34,14.69v73.73" transform="translate(-33.86 -28.79)"/><g id="Group_72" data-name="Group 72"><path id="Path_374" data-name="Path 374" class="cls-1" d="M64.88,164.22a6,6,0,0,1,5,1.76,6.06,6.06,0,0,0,5.66,1.56,6.17,6.17,0,0,0,3-10.39A18.38,18.38,0,0,0,53,156.78l-.06,0V139.53a7.53,7.53,0,1,0-15,0h0v24.75a21.49,21.49,0,0,0,3.36,11.31,22,22,0,0,1,3.34,11.67v14.41H65.57v-13a18.37,18.37,0,0,0,7.17-1.45,6.08,6.08,0,0,0,1.38-10.4l-.36-.29a5.86,5.86,0,0,0-5.87-.68,6.07,6.07,0,1,1-3-11.63Z" transform="translate(-33.86 -28.79)"/></g></g><path id="Path_375" data-name="Path 375" class="cls-1" d="M187.58,185.54v24l-24.93,11.1V196.84Z" transform="translate(-33.86 -28.79)"/><g id="Group_74" data-name="Group 74"><path id="Path_376" data-name="Path 376" class="cls-2" d="M130.38,213.62l-35.59,17.5a32.74,32.74,0,0,0-13.94,13.09L70.77,261.92V207.43H39.63v84.09a19.06,19.06,0,0,0,33.89,12L100,270.64V313" transform="translate(-33.86 -28.79)"/><path id="Path_377" data-name="Path 377" class="cls-2" d="M248.87,307.72V259.05a27,27,0,0,0-14.46-23.9l-9.1-4.75-34.13-16.78" transform="translate(-33.86 -28.79)"/></g></g><g id="Group_76" data-name="Group 76"><path id="Path_378" data-name="Path 378" class="cls-3" d="M220.16,298.9V249.33h85.51V298.9a14.25,14.25,0,0,1-14.25,14.24h-57A14.25,14.25,0,0,1,220.16,298.9Z" transform="translate(-33.86 -28.79)"/><path id="Path_379" data-name="Path 379" class="cls-3" d="M284,249.33V298.9a14.25,14.25,0,0,1-14.25,14.24h21.68a14.25,14.25,0,0,0,14.25-14.24V249.33Z" transform="translate(-33.86 -28.79)"/><path id="Path_380" data-name="Path 380" class="cls-3" d="M220.16,249.33h85.51a16.63,16.63,0,0,0-16.62-16.62H236.78a16.62,16.62,0,0,0-16.62,16.62Z" transform="translate(-33.86 -28.79)"/><path id="Path_381" data-name="Path 381" class="cls-3" d="M289.05,232.71H267.37A16.63,16.63,0,0,1,284,249.33h21.68A16.62,16.62,0,0,0,289.05,232.71Z" transform="translate(-33.86 -28.79)"/></g></g><g id="Group_78" data-name="Group 78"><path id="Path_382" data-name="Path 382" class="cls-3" d="M33.79,28.79" transform="translate(-33.86 -28.79)"/></g></g><path id="Path_383" data-name="Path 383" class="cls-4" d="M155.31,224.72l-24.93-11.1L94,231.65a29.88,29.88,0,0,0-12.56,11.79L70.77,261.92V207.43H39.63v84a19.07,19.07,0,0,0,33.91,12L100,270.64v42.5H125V239.4Z" transform="translate(-33.86 -28.79)"/></g><g id="Group_82" data-name="Group 82"><path id="Path_384" data-name="Path 384" class="cls-5" d="M235.21,172c-1.51,1.37-4,3.67-4,7.93,0,5.24,8.13,5.24,8.13,0,0-.55,0-.7,1.37-1.91,5.13-4.65,5.14-11.2,0-15.85-1.72-1.57-1.72-2.24,0-3.81,1.52-1.37,4.05-3.66,4.05-7.92,0-5.24-8.13-5.24-8.13,0,0,.54-.05.7-1.38,1.9-5.12,4.65-5.13,11.2,0,15.85,1.73,1.57,1.73,2.24,0,3.81Z" transform="translate(-33.86 -28.79)"/><path id="Path_385" data-name="Path 385" class="cls-5" d="M281.66,187.4c-1.51,1.37-4,3.67-4,7.93,0,5.24,8.13,5.24,8.13,0,0-.54.05-.7,1.38-1.91,5.12-4.65,5.13-11.19,0-15.85-1.73-1.57-1.73-2.24,0-3.8,1.51-1.38,4-3.67,4-7.93,0-5.24-8.13-5.24-8.13,0,0,.54-.05.7-1.37,1.9-5.13,4.65-5.14,11.2,0,15.86C283.39,185.16,283.39,185.83,281.66,187.4Z" transform="translate(-33.86 -28.79)"/><path id="Path_386" data-name="Path 386" class="cls-5" d="M257.79,146.79c-1.51,1.37-4,3.66-4,7.92,0,5.25,8.13,5.25,8.13,0,0-.54.05-.69,1.38-1.9,5.12-4.65,5.13-11.2,0-15.85-1.73-1.57-1.73-2.24,0-3.81,1.51-1.37,4-3.67,4-7.92,0-5.25-8.13-5.25-8.13,0,0,.54-.05.69-1.38,1.9-5.12,4.65-5.13,11.2,0,15.85C259.52,144.55,259.52,145.22,257.79,146.79Z" transform="translate(-33.86 -28.79)"/><path id="Path_387" data-name="Path 387" class="cls-5" d="M147.68,249.49c-5.23,0-5.24,8.13,0,8.13S152.92,249.49,147.68,249.49Z" transform="translate(-33.86 -28.79)"/><path id="Path_388" data-name="Path 388" class="cls-5" d="M147.68,274.56c-5.23,0-5.24,8.13,0,8.13S152.92,274.56,147.68,274.56Z" transform="translate(-33.86 -28.79)"/><path id="Path_389" data-name="Path 389" class="cls-5" d="M147.68,297.31c-5.23,0-5.24,8.13,0,8.13S152.92,297.31,147.68,297.31Z" transform="translate(-33.86 -28.79)"/><path id="Path_390" data-name="Path 390" class="cls-5" d="M172.49,249.49c-5.23,0-5.24,8.13,0,8.13S177.73,249.49,172.49,249.49Z" transform="translate(-33.86 -28.79)"/><path id="Path_391" data-name="Path 391" class="cls-5" d="M172.49,274.56c-5.23,0-5.24,8.13,0,8.13S177.73,274.56,172.49,274.56Z" transform="translate(-33.86 -28.79)"/><path id="Path_392" data-name="Path 392" class="cls-5" d="M172.49,297.31c-5.23,0-5.24,8.13,0,8.13S177.73,297.31,172.49,297.31Z" transform="translate(-33.86 -28.79)"/><path id="Path_393" data-name="Path 393" class="cls-5" d="M171.23,152.8a4.06,4.06,0,1,0-5.72-5.77l0,0a7.7,7.7,0,0,1-10.89,0,4.07,4.07,0,0,0-5.78,5.73l0,0a15.86,15.86,0,0,0,22.39,0Z" transform="translate(-33.86 -28.79)"/><path id="Path_394" data-name="Path 394" class="cls-5" d="M318.12,254.74h-8.88v-8.07a21.53,21.53,0,0,0-21.5-21.5H274.19v-.3a13.62,13.62,0,0,0-27.23,0v.3H233.4a21.82,21.82,0,0,0-5.09.62l-4.86-2.54-.09-.05-33.12-16.28V184.64c0-3.93-4.44-5-7.28-3.25V171.25a47,47,0,0,0,23.87-35.91h.63a13.31,13.31,0,0,0,0-26.62h-.34V46.65a17.89,17.89,0,0,0-17.87-17.86H131a17.89,17.89,0,0,0-17.87,17.86v8.63a4.23,4.23,0,0,0,8.46,0V46.65A9.42,9.42,0,0,1,131,37.24h58.3a9.43,9.43,0,0,1,9.42,9.41v47H183V83.88a4.23,4.23,0,0,0-8.46,0v9.76H164.33V59.19a4.23,4.23,0,0,0-8.45,0V93.64H145.7V72.91a4.23,4.23,0,0,0-8.45,0V93.64H121.54V77.78a4.23,4.23,0,0,0-8.45,0v30.94h-.34a13.31,13.31,0,1,0,0,26.62h.63a47,47,0,0,0,23.87,35.91v10.14c-2.83-1.75-7.28-.76-7.28,3.25v22.28L95.33,224A38.12,38.12,0,0,0,79,239.26l-2.57,4.52V203.12a4.22,4.22,0,0,0-4.23-4.22H71.05v-5.44A23.07,23.07,0,0,0,75.93,192a10.54,10.54,0,0,0,5.6-13.82,10.39,10.39,0,0,0-3.22-4.2l-.38-.3A9.91,9.91,0,0,0,74.65,172,10.67,10.67,0,0,0,86,164.29a10.46,10.46,0,0,0-2.75-10.44,23.35,23.35,0,0,0-25.29-5V138.54c0-15.37-24.09-15.58-24.09,0v25.72a26.44,26.44,0,0,0,4.14,14,18.66,18.66,0,0,1,2.83,9.89V198.9h-1a4.22,4.22,0,0,0-4.23,4.22h0v87.39A24,24,0,0,0,78.38,305.6l20-24.83v32.09c0,5.45,8.45,5.45,8.45,0V268.81a4.27,4.27,0,0,0-7.51-2.65L71.8,300.3a15.59,15.59,0,0,1-27.72-9.79V207.35H68v65.83c0,5.45,8.45,5.45,8.45,0V260.87l9.91-17.42a29.68,29.68,0,0,1,12.69-11.92l35.22-17.31,15.79,7-23.35,11.3a4.24,4.24,0,0,0-2.39,3.81V313c0,5.45,8.46,5.45,8.46,0V239l53.13-24.78,33.26,16.35a21.45,21.45,0,0,0-7.27,16.1h0v8.06H203c-5.45,0-5.45,8.45,0,8.45h8.87v35a19.06,19.06,0,0,0,19,19h32.26c5.45,0,5.45-8.45,0-8.45H230.94a10.6,10.6,0,0,1-10.58-10.58V250.89h80.43v47.29a10.6,10.6,0,0,1-10.58,10.58h-4.58c-5.45,0-5.45,8.45,0,8.45h4.58a19.06,19.06,0,0,0,19-19v-35h8.88c5.45,0,5.45-8.45,0-8.45ZM49.28,198.9V188.15a27.09,27.09,0,0,0-4.12-14.36,18.07,18.07,0,0,1-2.85-9.52V138.55c0-4.61,7.19-4.69,7.19,0v17.89a4.33,4.33,0,0,0,2.61,3.9,4.23,4.23,0,0,0,4.56-.78,14.87,14.87,0,0,1,20.63.3c1.85,1.83-1,5.21-3,3.2A10.47,10.47,0,0,0,65.63,160c-12.73,1.46-11.71,21,1.19,21,1.71,0,4.85-1.76,6.29-.37a2.11,2.11,0,0,1-.49,3.59,14.78,14.78,0,0,1-5.8,1.18,4.26,4.26,0,0,0-4.22,4.22v9.29Zm23.45-27.28a10.56,10.56,0,0,0-5.12.78c-4.33,1.8-2.62-6.74.69-3.39A10.24,10.24,0,0,0,72.73,171.62ZM212.32,122a4.86,4.86,0,0,1-4.86,4.86h-.34v-9.72h.34a4.87,4.87,0,0,1,4.86,4.86Zm-13.65-19.94v6.63H121.54v-6.63ZM107.88,122a4.87,4.87,0,0,1,4.87-4.86h.34v9.72h-.34A4.87,4.87,0,0,1,107.88,122Zm13.66,8.17v-13h77.12v13a38.56,38.56,0,0,1-77.12,0Zm24.16,44.74a46.91,46.91,0,0,0,28.8,0v10.28l-14.4,6.53-14.4-6.53Zm-7.29,16.26.73.32a4.2,4.2,0,0,0,1.2.55l15.53,7v15.47l-17.46-7.77Zm43.38,15.61-17.46,7.77V199.11l15.53-7a4.08,4.08,0,0,0,1.2-.55l.73-.32Zm73.61,18.06a5.17,5.17,0,1,1,10.34,0h0v.3H255.41Zm-34.34,17.57a13.07,13.07,0,0,1,12.34-8.82h54.34a13.07,13.07,0,0,1,12.34,8.82Z" transform="translate(-33.86 -28.79)"/><path id="Path_395" data-name="Path 395" class="cls-5" d="M290.84,296.8a4.07,4.07,0,0,0,4.07-4.06V269.58a4.07,4.07,0,0,0-8.14,0v23.16a4.07,4.07,0,0,0,4.07,4.06Z" transform="translate(-33.86 -28.79)"/></g></svg>