<svg id="Layer_5" data-name="Layer 5" xmlns="http://www.w3.org/2000/svg" viewBox="0 0 307.02 287.16"><defs><style>.cls-1{opacity:0.3;}.cls-2{fill:#dc5126;}.cls-3{fill:#ffc3a9;}</style></defs><g id="_008-baguettes" data-name=" 008-baguettes" class="cls-1"><path id="Path_339" data-name="Path 339" class="cls-2" d="M250.84,301.05c17.6,12.88,43.74,9.84,58-6.52l.27-.32c35.45-41.24,5.6-128.73-67.49-194.32-74.29-64.2-164-82-199.35-40.67l-.28.32c-14,16.57-13.34,43.22,1.7,59.09A1617.8,1617.8,0,0,0,250.84,301.05Z" transform="translate(-24.49 -29.42)"/><g id="Group_50" data-name="Group 50"><path id="Path_343" data-name="Path 343" class="cls-3" d="M323.09,203.69c-13.16-38.09-40.34-77-76.54-109.45l-.11-.09C209.65,62.36,167.87,40.5,128.8,32.6c-40.45-8.17-73.18-.48-92.16,21.67l-.31.37c-16.54,19.56-15.65,50.61,2,69.24Q86.28,174,138.55,220t107.9,87.15l0,0c20.63,15.09,51.11,11.66,67.91-7.63l.33-.38C333.74,277,336.71,243.13,323.09,203.69ZM228,98.33l17,15,0,0-37.28,28c-1.15.7-1.94.65-2.18.45s-.38-1,.14-2.25L228,98.28Zm75.24,191.21c-11.69,13.43-33.69,15.9-48,5.41A1614.57,1614.57,0,0,1,49.05,113.41c-12.26-12.94-12.91-35.36-1.39-49l.22-.26c15.33-17.89,43-23.85,78-16.78a184.18,184.18,0,0,1,18.34,4.75L126,86c-.08.14-.15.29-.22.44-3.37,7.38-2,15.28,3.52,20.14h0c5.51,4.85,13.43,5.14,20.18.74l.41-.28,43.52-32.71q11.38,6.72,22.5,14.75l-23.38,43.52c-.08.14-.15.29-.22.44-3.37,7.38-2,15.28,3.52,20.14h0c5.52,4.85,13.44,5.14,20.19.73a4.85,4.85,0,0,0,.4-.28l39.28-29.51q9.38,10,17.55,20.52l-25.91,48.22c-.07.14-.15.28-.22.43-3.37,7.38-2,15.29,3.52,20.14h0c5.51,4.85,13.43,5.14,20.18.73l.4-.28,30.59-23A185.21,185.21,0,0,1,309,208.67c11.78,34.11,9.81,62.73-5.54,80.59ZM179,66.46,141.26,94.78c-1.15.7-1.94.66-2.18.45s-.38-1,.15-2.24L158.45,57.2Zm116,110.91-32.3,24.27c-1.16.7-1.95.66-2.18.45s-.39-1,.14-2.24L283,158.09Z" transform="translate(-24.49 -29.42)"/><path id="Path_344" data-name="Path 344" class="cls-3" d="M237.19,240.87,163,175.56a7.39,7.39,0,0,0-10.51.65,7.62,7.62,0,0,0,.65,10.65l.09.09,74.16,65.3a7.37,7.37,0,0,0,10.49-.84A7.6,7.6,0,0,0,237.19,240.87Z" transform="translate(-24.49 -29.42)"/><path id="Path_345" data-name="Path 345" class="cls-3" d="M139.3,154.66l-.57-.49a7.37,7.37,0,0,0-10.5.65,7.6,7.6,0,0,0,.64,10.64l.1.09.56.49a7.37,7.37,0,0,0,10.49-.83A7.61,7.61,0,0,0,139.3,154.66Z" transform="translate(-24.49 -29.42)"/></g></g></svg>