<svg id="Layer_1" data-name="Layer 1" xmlns="http://www.w3.org/2000/svg" viewBox="0 0 307.1 275.15"><defs><style>.cls-1{fill:#48c1e1;}.cls-2{fill:#4a8fcc;}.cls-3,.cls-5{opacity:0.1;}.cls-4{fill:#fff;}.cls-5{isolation:isolate;}.cls-6{fill:#dc5126;}.cls-7{fill:#5fc3b4;}.cls-8{fill:#fdd15e;}.cls-9{fill:#09a69f;}.cls-10{fill:#f59171;}.cls-11{fill:#ffeac4;}.cls-12{fill:#232d61;}</style></defs><g id="diet"><rect id="Rectangle_49" data-name="Rectangle 49" class="cls-1" x="39.9" y="32.12" width="30.15" height="18.41"/><path id="Path_266" data-name="Path 266" class="cls-2" d="M100.71,64.54a3,3,0,0,1-3,3H61.13a3,3,0,0,1-3-3V42.92a3,3,0,0,1,3-3H97.71a3,3,0,0,1,3,3V64.54Z" transform="translate(-24.45 -35.42)"/><g id="Group_43" data-name="Group 43" class="cls-3"><path id="Path_267" data-name="Path 267" d="M70.64,64.54V42.92a3,3,0,0,1,3-3H61.13a3,3,0,0,0-3,3V64.54a3,3,0,0,0,3,3H73.64A3,3,0,0,1,70.64,64.54Z" transform="translate(-24.45 -35.42)"/></g><path id="Path_268" data-name="Path 268" class="cls-4" d="M54.78,229.28a3.25,3.25,0,0,1-.45-1.58c0-4,8.2-7.22,18.3-7.22a40.6,40.6,0,0,1,9.76,1.11,108.39,108.39,0,0,1-3.24-26.47,3,3,0,0,1,3-3H87.4a20.74,20.74,0,0,1-.11-2.09,19.27,19.27,0,0,1,13.45-18.39,18.19,18.19,0,0,1,8.54-24.26l.26-.12a17.21,17.21,0,0,1-.79-3,18.19,18.19,0,0,1,6.57-17.32V102.68A16.76,16.76,0,0,0,98.62,86H60.22a16.77,16.77,0,0,0-16.7,16.73V236A44.59,44.59,0,0,1,54.78,229.28Z" transform="translate(-24.45 -35.42)"/><path id="Path_269" data-name="Path 269" class="cls-2" d="M100.74,171.62a18.19,18.19,0,0,1,8.55-24.26l.25-.11a18.21,18.21,0,0,1,5.78-20.33V116.43H43.52v61.95H91.19A19.23,19.23,0,0,1,100.74,171.62Z" transform="translate(-24.45 -35.42)"/><path id="Path_270" data-name="Path 270" class="cls-5" d="M54.78,229.28a3.25,3.25,0,0,1-.45-1.58c0-2.46,3.13-4.64,7.91-5.94V102.68A16.75,16.75,0,0,1,78.93,86H60.22a16.77,16.77,0,0,0-16.7,16.73V236A44.59,44.59,0,0,1,54.78,229.28Z" transform="translate(-24.45 -35.42)"/><path id="Path_271" data-name="Path 271" class="cls-6" d="M170.74,133.45a18.9,18.9,0,0,1,.27,3.1,18.18,18.18,0,0,1,16,13.65,19.08,19.08,0,0,1,11.27-5.08,32.61,32.61,0,0,1,9.52-22c.21-.22.43-.43.66-.64A40.06,40.06,0,0,0,197.34,101a3.14,3.14,0,0,0-4.44,0h0l-25.15,25.2A18,18,0,0,1,170.74,133.45Z" transform="translate(-24.45 -35.42)"/><path id="Path_272" data-name="Path 272" class="cls-7" d="M200.12,145A19.25,19.25,0,0,1,218.6,159a18.47,18.47,0,0,1,1.77,1.15A16.43,16.43,0,0,1,235,152.77q.65-.59,1.26-1.2l.35-.36a19.4,19.4,0,0,1,5.78-8.17,32.68,32.68,0,0,0,1.11-26.6,1,1,0,0,0-.58-.58,32.57,32.57,0,0,0-44.57,29.26A18.18,18.18,0,0,1,200.12,145Z" transform="translate(-24.45 -35.42)"/><g id="Group_44" data-name="Group 44"><path id="Path_273" data-name="Path 273" class="cls-8" d="M258.84,169.92a29.84,29.84,0,0,1,14.58-8,19.23,19.23,0,0,0-37.38-9,16.4,16.4,0,0,1,14.49,16.29,16.24,16.24,0,0,1,6.94,2.25C257.91,170.9,258.37,170.4,258.84,169.92Z" transform="translate(-24.45 -35.42)"/><path id="Path_274" data-name="Path 274" class="cls-8" d="M100.74,171.62A19.27,19.27,0,0,0,87.29,190a20.74,20.74,0,0,0,.11,2.09h27.39A30.15,30.15,0,0,1,111.21,181,18.23,18.23,0,0,1,100.74,171.62Z" transform="translate(-24.45 -35.42)"/></g><path id="Path_275" data-name="Path 275" class="cls-7" d="M291.57,163.8a.87.87,0,0,0-.22-.32,1,1,0,0,0-.32-.21,29.83,29.83,0,0,0-32.19,6.65c-.48.48-.93,1-1.37,1.48a16.38,16.38,0,0,1,6.65,20.7h24.13A30,30,0,0,0,291.57,163.8Z" transform="translate(-24.45 -35.42)"/><path id="Path_276" data-name="Path 276" class="cls-8" d="M100.74,171.62A19.27,19.27,0,0,0,87.29,190a20.74,20.74,0,0,0,.11,2.09h27.39A30.15,30.15,0,0,1,111.21,181,18.23,18.23,0,0,1,100.74,171.62Z" transform="translate(-24.45 -35.42)"/><g id="Group_45" data-name="Group 45"><path id="Path_277" data-name="Path 277" class="cls-9" d="M113.13,166.45a1,1,0,0,1,.21-.32.85.85,0,0,1,.32-.21,29.87,29.87,0,0,1,35,9.9,40.08,40.08,0,0,1-.75-7.72,3.14,3.14,0,0,1,3.14-3.15H180.9c0-.21,0-.43,0-.64A19.21,19.21,0,0,1,187,150.2a18.16,18.16,0,0,0-16-13.65,18.2,18.2,0,0,0-33.39-10,18.22,18.22,0,0,0-28.86,17.69,17.45,17.45,0,0,0,.79,3A18.18,18.18,0,0,0,111.21,181,30,30,0,0,1,113.13,166.45Z" transform="translate(-24.45 -35.42)"/><path id="Path_278" data-name="Path 278" class="cls-9" d="M265.27,182.69a16.42,16.42,0,0,0-14.74-13.54,16.45,16.45,0,0,0-30.16-9A14.83,14.83,0,0,0,218.6,159a19.17,19.17,0,0,1,.75,5.33c0,.21,0,.43,0,.64h5.85a3.15,3.15,0,0,1,3.15,3.15h0a40.12,40.12,0,0,1-7.94,24h43.72A16.34,16.34,0,0,0,265.27,182.69Z" transform="translate(-24.45 -35.42)"/></g><path id="Path_279" data-name="Path 279" class="cls-10" d="M219.34,165c0-.21,0-.43,0-.64a19.23,19.23,0,0,0-38.46-.22v.22c0,.21,0,.43,0,.64Z" transform="translate(-24.45 -35.42)"/><path id="Path_280" data-name="Path 280" class="cls-7" d="M148.66,175.82a29.89,29.89,0,0,0-35-9.91,1,1,0,0,0-.53.54,30,30,0,0,0,1.66,25.65h39.78c0-.71-.11-1.43-.2-2.14A40.16,40.16,0,0,1,148.66,175.82Z" transform="translate(-24.45 -35.42)"/><path id="Path_281" data-name="Path 281" class="cls-6" d="M220.4,192.1a40.13,40.13,0,0,0,7.93-24,3.15,3.15,0,0,0-3.14-3.15H151.05a3.14,3.14,0,0,0-3.14,3.15h0a40.13,40.13,0,0,0,7.93,24Z" transform="translate(-24.45 -35.42)"/><path id="Path_282" data-name="Path 282" class="cls-11" d="M87.61,223.55c3.31-1.86,8.78-3.08,15-3.08,10.11,0,18.31,3.24,18.31,7.23a3.25,3.25,0,0,1-.45,1.58c13.57,5.59,23.47,17.36,25.46,31.42l91.91-34.92a16.15,16.15,0,0,1,20.85,9.34,15.89,15.89,0,0,1,.79,2.77l.8,4.33,31.43-18.56a108.28,108.28,0,0,0,3.77-28.54,3,3,0,0,0-3-3H82.16a3,3,0,0,0-3,3h0a108.87,108.87,0,0,0,3.23,26.47A21.3,21.3,0,0,1,87.61,223.55Z" transform="translate(-24.45 -35.42)"/><g id="Group_46" data-name="Group 46" class="cls-3"><path id="Path_283" data-name="Path 283" d="M87.61,223.55c3-1.68,7.75-2.83,13.21-3a108.57,108.57,0,0,1-3-25.39,3,3,0,0,1,3-3H82.16a3,3,0,0,0-3,3h0a108.87,108.87,0,0,0,3.23,26.47A21.3,21.3,0,0,1,87.61,223.55Z" transform="translate(-24.45 -35.42)"/></g><path id="Path_284" data-name="Path 284" class="cls-6" d="M100.56,292.91l-.15-.83a16.07,16.07,0,0,1,10.12-17.95l35.36-13.43c-2-14.06-11.89-25.83-25.46-31.42-1.44,2.56-6.32,4.61-12.64,5.35,4.63,3.71,6.75,7.6,4.86,9.73-2.49,2.82-11.08,1.48-19.16-3a36.84,36.84,0,0,1-5.89-4,36.84,36.84,0,0,1-5.89,4c-8.08,4.47-16.66,5.81-19.16,3-1.88-2.13.23-6,4.86-9.73-6.31-.74-11.19-2.79-12.64-5.35C39.56,235.55,29,249.59,29,265.93a37.37,37.37,0,0,0,1.92,11.82c5.39,16.33,22,28.33,41.75,28.33h30a47.25,47.25,0,0,0,8.8-.82A16.09,16.09,0,0,1,100.56,292.91Z" transform="translate(-24.45 -35.42)"/><path id="Path_285" data-name="Path 285" class="cls-10" d="M100.56,292.91a16.14,16.14,0,0,0,15.89,13.17L252.67,306A16.1,16.1,0,0,0,268.81,290a17,17,0,0,0-.26-2.93l-9.1-49.13A16.16,16.16,0,0,0,240.58,225a16.78,16.78,0,0,0-2.77.78L110.53,274.13a16.08,16.08,0,0,0-10.12,17.95Z" transform="translate(-24.45 -35.42)"/><path id="Path_286" data-name="Path 286" class="cls-5" d="M47.84,265.93c0-12.9,6.62-24.36,16.89-31.71-5-.94-8.72-2.76-10-4.94C39.56,235.55,29,249.59,29,265.93c0,22.17,19.55,40.15,43.67,40.15H91.51C67.39,306.08,47.84,288.1,47.84,265.93Z" transform="translate(-24.45 -35.42)"/><path id="Path_287" data-name="Path 287" class="cls-7" d="M120.89,227.7c0-4-8.2-7.22-18.31-7.22-6.19,0-11.66,1.21-15,3.07-3.31-1.86-8.78-3.07-15-3.07-10.11,0-18.3,3.23-18.3,7.22,0,3.28,5.52,6,13.09,6.93-4.63,3.71-6.75,7.6-4.86,9.73,2.5,2.82,11.08,1.48,19.16-3a36.2,36.2,0,0,0,5.89-4,36.84,36.84,0,0,0,5.89,4c8.08,4.47,16.66,5.81,19.16,3,1.89-2.13-.23-6-4.86-9.73C115.36,233.74,120.89,231,120.89,227.7Z" transform="translate(-24.45 -35.42)"/><path id="Path_288" data-name="Path 288" class="cls-9" d="M327,253.56l-1.18-6.33a4,4,0,0,0-4.7-3.22l-45.26,8.31L304.75,233A4,4,0,0,0,306,227.7l-3.27-5.8a4,4,0,0,0-5.51-1.52l-.06,0-36.93,21.8,7.21,38.92,42.35,7.61a4,4,0,0,0,4.69-3.25s0-.07,0-.11l1-6.54a4,4,0,0,0-3.08-4.51l-33.92-7.78,45.26-8.31a4,4,0,0,0,3.24-4.68Z" transform="translate(-24.45 -35.42)"/><g id="Group_47" data-name="Group 47" class="cls-3"><path id="Path_289" data-name="Path 289" d="M267.73,282.62a16.12,16.12,0,0,1-15.06,10.29l-136.22,0a16.14,16.14,0,0,1-15-10.12,15.91,15.91,0,0,0-1,9.24l.15.83a16.14,16.14,0,0,0,15.89,13.17L252.67,306A16.1,16.1,0,0,0,268.81,290a17,17,0,0,0-.26-2.93Z" transform="translate(-24.45 -35.42)"/></g><path id="Path_290" data-name="Path 290" class="cls-12" d="M123.28,152.51h.08a4.49,4.49,0,0,0,4.49-4.42,5,5,0,0,1,5.08-4.91h0a4.93,4.93,0,0,1,3.61,1.62,4.5,4.5,0,1,0,6.64-6.07,14,14,0,0,0-24.33,9.21,4.5,4.5,0,0,0,4.42,4.57Z" transform="translate(-24.45 -35.42)"/><path id="Path_291" data-name="Path 291" class="cls-12" d="M145.91,159.74a4.48,4.48,0,0,0,5.77-2.64h0a3.86,3.86,0,0,1,7.16-.18,4.5,4.5,0,0,0,8.28-3.52,12.86,12.86,0,0,0-23.88.57A4.5,4.5,0,0,0,145.91,159.74Z" transform="translate(-24.45 -35.42)"/><path id="Path_292" data-name="Path 292" class="cls-12" d="M188.7,125.48a4.47,4.47,0,0,0,3.18-1.32l4.24-4.25a4.49,4.49,0,0,0-6.36-6.35l-4.24,4.24a4.5,4.5,0,0,0,3.18,7.68Z" transform="translate(-24.45 -35.42)"/><path id="Path_293" data-name="Path 293" class="cls-12" d="M168.13,171.63h-6a4.5,4.5,0,1,0,0,9h6a4.5,4.5,0,1,0,0-9Z" transform="translate(-24.45 -35.42)"/><path id="Path_294" data-name="Path 294" class="cls-12" d="M208.11,180.62h6a4.5,4.5,0,1,0,0-9h-6a4.5,4.5,0,1,0,0,9Z" transform="translate(-24.45 -35.42)"/><path id="Path_295" data-name="Path 295" class="cls-12" d="M331.41,252.74l-1.17-6.32a8.53,8.53,0,0,0-9.94-6.83L296.45,244l10.8-7.22a8.49,8.49,0,0,0,2.68-11.26l-3.26-5.79a8.51,8.51,0,0,0-8.55-4.26,112.66,112.66,0,0,0,1.82-20.32,7.52,7.52,0,0,0-4.47-6.87,34.48,34.48,0,0,0,.28-26.1,5.51,5.51,0,0,0-3.06-3.06A34.36,34.36,0,0,0,280,156.65c-.56,0-1.12,0-1.67,0a23.72,23.72,0,0,0-24.83-22.55,23.48,23.48,0,0,0-3.74.48,37.08,37.08,0,0,0-2.1-19.8,5.55,5.55,0,0,0-3.11-3.14,37,37,0,0,0-33.42,3.07,44.47,44.47,0,0,0-10.59-17,7.63,7.63,0,0,0-10.8,0h0l-21.78,21.83a22.73,22.73,0,0,0-31.33,1.08,22.59,22.59,0,0,0-16.78-1.2V102.69A21.25,21.25,0,0,0,99,81.46V71.92a7.52,7.52,0,0,0,6.22-7.38V42.92a7.51,7.51,0,0,0-7.5-7.5H61.13a7.52,7.52,0,0,0-7.5,7.5V64.54a7.52,7.52,0,0,0,6.22,7.38v9.54A21.24,21.24,0,0,0,39,102.68V234a43,43,0,0,0-14.57,32c0,24.62,21.61,44.65,48.17,44.65l180-.06A20.59,20.59,0,0,0,273.3,290a21,21,0,0,0-.25-3.26l36,6.47a8.57,8.57,0,0,0,10-7.13l1-6.54a8.51,8.51,0,0,0-6.53-9.56L300.74,267l23.82-4.38a8.51,8.51,0,0,0,6.85-9.91ZM280,165.64a25.13,25.13,0,0,1,7.93,1.28,25.44,25.44,0,0,1-2.15,20.68H273.64l3.87-3.87a4.5,4.5,0,0,0-6.36-6.36l-2,2a20.78,20.78,0,0,0-4.84-8.3A25.15,25.15,0,0,1,280,165.64ZM254.61,143.1a14.77,14.77,0,0,1,14.73,14.78c0,.15,0,.3,0,.45A34.11,34.11,0,0,0,256.49,166a18.32,18.32,0,0,0-1.81-.61,20.87,20.87,0,0,0-12.43-15.46,14.71,14.71,0,0,1,12.36-6.78ZM230.83,118a27.77,27.77,0,0,1,8.95,1.48,28.12,28.12,0,0,1-1.11,20.77,24,24,0,0,0-5.76,8,21,21,0,0,0-12,4.64,23.26,23.26,0,0,0-3.4-4.73l10.32-10.34a4.5,4.5,0,0,0-6.37-6.35l-11.28,11.3a23.77,23.77,0,0,0-6.9-2.05A28.09,28.09,0,0,1,230.83,118ZM196.36,187.6h-3.9a4.5,4.5,0,0,0-8.37,0H179.5a4.49,4.49,0,0,0-7-5.52l-4.24,4.25a4.48,4.48,0,0,0-.89,1.27H158.2a35.66,35.66,0,0,1-5.77-18.15H223.8A35.47,35.47,0,0,1,218,187.6h-9.52a4.9,4.9,0,0,0-.89-1.28l-4.24-4.24a4.49,4.49,0,0,0-7,5.52ZM185.9,160.45a14.72,14.72,0,0,1,28.44,0Zm9.2-55.31A35.49,35.49,0,0,1,203.59,121a37.48,37.48,0,0,0-5.71,8.19,4.47,4.47,0,0,0-2.34-.66h-6a4.5,4.5,0,1,0,0,9h5.26a37.3,37.3,0,0,0-.7,3.77,23.31,23.31,0,0,0-5.08,2,22.74,22.74,0,0,0-13.85-10.58s0,0,0,0a22.44,22.44,0,0,0-1.81-5.76Zm-70.74,22.49a14.39,14.39,0,0,1,2.37-.2,13.53,13.53,0,0,1,8.19,2.73,4.5,4.5,0,0,0,6.3-.91l.14-.21a13.7,13.7,0,0,1,24.94,5.18,13,13,0,0,1,.2,2.33,4.52,4.52,0,0,0,4.11,4.48,13.7,13.7,0,0,1,11.3,8.06,23.76,23.76,0,0,0-5.2,11.36H151.05a7.65,7.65,0,0,0-7.06,4.76,34.34,34.34,0,0,0-32-3.47,5.43,5.43,0,0,0-3,3.06,34.48,34.48,0,0,0-2.1,8,13.69,13.69,0,0,1,1.27-19.31,14.09,14.09,0,0,1,3.3-2.15,4.5,4.5,0,0,0,2.36-5.6,12.44,12.44,0,0,1-.6-2.25A13.73,13.73,0,0,1,124.36,127.63Zm2.83,58.74,1.22,1.23h-10.8a25.5,25.5,0,0,1-.83-18,25.31,25.31,0,0,1,27.68,8.19,44.44,44.44,0,0,0,3.44,9.85h-6.78L133.56,180a4.5,4.5,0,0,0-6.37,6.35Zm-28.22-9a22.52,22.52,0,0,0,8.2,6.8,34.46,34.46,0,0,0,.86,3.47H92A14.82,14.82,0,0,1,99,177.34ZM62.63,44.42H96.21V63H62.63ZM90,72v9.41H68.85V72ZM48,120.93H77.23a4.5,4.5,0,1,0,0-9H48v-9.25a12.23,12.23,0,0,1,12.2-12.23h38.4a12.22,12.22,0,0,1,12.2,12.23v9.25h-8.4a4.5,4.5,0,0,0,0,9h8.4v4A22.7,22.7,0,0,0,104.31,145s0,0,0,.05a22.74,22.74,0,0,0-9.53,22.59c.09.51.2,1,.33,1.52a23.67,23.67,0,0,0-6,4.72H48Zm0,61.95H83.9a23.16,23.16,0,0,0-1,4.72h-.76a7.52,7.52,0,0,0-7.51,7.52,114,114,0,0,0,1.95,21c-1.29-.11-2.62-.16-4-.16A40.93,40.93,0,0,0,58,218.41c-6.07,2.4-7.75,5.8-8.12,8.16-.64.32-1.28.65-1.9,1V182.88Zm57,55.26a17.26,17.26,0,0,1,3.19,3.2H108c-2.55,0-7.12-1-12.32-3.91a32.29,32.29,0,0,1-5.16-3.5,4.48,4.48,0,0,0-5.82,0,32.29,32.29,0,0,1-5.16,3.5c-5.2,2.88-9.78,3.91-12.32,3.91h-.17a16.62,16.62,0,0,1,3.18-3.2,4.5,4.5,0,0,0-2.29-8,21.46,21.46,0,0,1-8.46-2.44c1.63-1,5.74-2.75,13.15-2.75,6.14,0,10.62,1.29,12.77,2.5a4.55,4.55,0,0,0,4.41,0c2.15-1.21,6.64-2.5,12.77-2.5,7.41,0,11.53,1.73,13.16,2.75a21.52,21.52,0,0,1-8.47,2.44,4.5,4.5,0,0,0-2.29,8ZM33.45,265.93c0-13.44,8.21-25.16,20.3-31.23a19.31,19.31,0,0,0,5.17,2.65,10.68,10.68,0,0,0-1.52,4.44,7.34,7.34,0,0,0,1.79,5.55c1.76,2,4.46,3,8,3,4.75,0,11-1.88,16.68-5A40.8,40.8,0,0,0,87.61,243c1.16.8,2.4,1.57,3.71,2.3,5.69,3.15,11.93,5,16.68,5h0c3.57,0,6.27-1,8-3a7.3,7.3,0,0,0,1.79-5.55,10.53,10.53,0,0,0-1.51-4.44,19.61,19.61,0,0,0,5.17-2.65c9.59,4.81,16.73,13.18,19.28,23.14l-31.82,12.09a20.58,20.58,0,0,0-13,23l.16.83a20.39,20.39,0,0,0,3.24,7.85H72.62C51,301.58,33.45,285.58,33.45,265.93Zm228.18,31.42a11.69,11.69,0,0,1-9,4.18H248L245,285.6a4.5,4.5,0,1,0-8.85,1.64l2.65,14.29H223.32l-2-10.77a4.5,4.5,0,1,0-8.85,1.63l1.7,9.14h-36l-2.71-14.62a4.5,4.5,0,0,0-8.85,1.64l2.42,13-52.57,0h0A11.64,11.64,0,0,1,105,292.09l-.15-.83a11.57,11.57,0,0,1,7.3-12.92l17.68-6.72,1.32,7.11a4.49,4.49,0,0,0,4.42,3.68,4.54,4.54,0,0,0,.82-.07,4.49,4.49,0,0,0,3.6-5.24l-1.61-8.72,26.24-10a4.5,4.5,0,1,0-3.19-8.41h0l-12.21,4.64c-3.43-12.13-12.23-22.27-23.9-28.07-.37-2.36-2-5.76-8.12-8.16a40.94,40.94,0,0,0-14.6-2.43,45.54,45.54,0,0,0-10.47,1.16v-2.71a4.5,4.5,0,0,0-4.49-4.5,4.56,4.56,0,0,0-2.79,1,103.53,103.53,0,0,1-1.17-14.29H230.18a4.5,4.5,0,0,0,0-9h-1.84a44.48,44.48,0,0,0,4.49-19.5,7.66,7.66,0,0,0-6.91-7.61,11.93,11.93,0,0,1,6.13-3.07,12.06,12.06,0,0,1,2.07-.18,11.89,11.89,0,0,1,11.74,9.88,12.54,12.54,0,0,1,.17,2,4.51,4.51,0,0,0,4.11,4.48,11.93,11.93,0,0,1,10.69,9.83,11.52,11.52,0,0,1,0,4.14H256a4.5,4.5,0,0,0,0,9h35a103.53,103.53,0,0,1-3.16,24.14L263.4,235.13A20.65,20.65,0,0,0,237.82,221c-.54.16-1.08.34-1.61.54L186,240.65a4.5,4.5,0,1,0,3.19,8.41l6.62-2.51,2.05,11.09a4.5,4.5,0,0,0,4.42,3.68,4.65,4.65,0,0,0,.83-.07,4.5,4.5,0,0,0,3.6-5.25h0l-2.35-12.69,35-13.32a11.72,11.72,0,0,1,9.88.72,11.58,11.58,0,0,1,5.74,8l9.1,49.13A11.53,11.53,0,0,1,261.63,297.35Zm16.05-35.22a4.5,4.5,0,0,0-.2,8.81l33.5,7.68-.84,5.62-38.83-7-6.07-32.77,33.82-20,2.82,5-28.53,19.07a4.5,4.5,0,0,0,3.32,8.17l44.81-8.23,1,5.38Z" transform="translate(-24.45 -35.42)"/></g></svg>