<svg id="Layer_3" data-name="Layer 3" xmlns="http://www.w3.org/2000/svg" viewBox="0 0 326.57 222.8"><defs><style>.cls-1{opacity:0.3;}.cls-2{fill:#ffc3a9;}.cls-3{fill:#dc5126;}.cls-4{fill:#fff3ee;}</style></defs><g id="_011-products-5" data-name=" 011-products-5" class="cls-1"><path id="Path_396" data-name="Path 396" class="cls-2" d="M304.89,142.87,278.75,84.16a5,5,0,0,1,2.54-6.61l20.35-9.06A5,5,0,0,1,308.25,71l26.14,58.71a5,5,0,0,1-2.53,6.61l-20.36,9.06a5,5,0,0,1-6.61-2.54Z" transform="translate(-14.72 -61.6)"/><path id="Path_397" data-name="Path 397" class="cls-3" d="M290.68,138.77l10.33-4.6-18.39-41.3-10.33,4.6a19.09,19.09,0,0,1-14.85.27L218.16,82a19.09,19.09,0,0,0-14.85.27L32.47,158.28a19,19,0,0,0-9.65,25.15h0l37.05,83.21A19,19,0,0,0,85,276.3h0l170.84-76.06A19,19,0,0,0,266,189.38l14.56-39.76A19,19,0,0,1,290.68,138.77Z" transform="translate(-14.72 -61.6)"/><g id="Group_83" data-name="Group 83"><path id="Path_398" data-name="Path 398" class="cls-2" d="M272.05,191.61l14.55-39.76a12.69,12.69,0,0,1,6.71-7.18l4.43-2,1.25,2.8a11.48,11.48,0,0,0,15.14,5.81l20.35-9.06a11.48,11.48,0,0,0,5.81-15.14L314.15,68.4A11.47,11.47,0,0,0,299,62.59l-20.36,9.06a11.48,11.48,0,0,0-5.81,15.14l1.25,2.8-4.44,2a12.65,12.65,0,0,1-9.81.18L220.56,76a25.63,25.63,0,0,0-19.88.36L29.84,152.38a25.55,25.55,0,0,0-12.92,33.68L54,269.27A25.53,25.53,0,0,0,87.64,282.2l170.84-76.06A25.64,25.64,0,0,0,272.05,191.61ZM302.94,75l25,56.06-17.7,7.88-25-56.06ZM292.49,130.9l-4.44,2a25.64,25.64,0,0,0-13.49,14.33l-19.32-43.39a25.63,25.63,0,0,0,19.68-.44l4.43-2ZM82.39,270.4A12.6,12.6,0,0,1,65.77,264l-37-83.21a12.59,12.59,0,0,1,6.38-16.62L205.93,88.13a12.67,12.67,0,0,1,9.82-.19l22.27,9,30.15,67.72-8.25,22.54a12.65,12.65,0,0,1-6.7,7.18Z" transform="translate(-14.72 -61.6)"/><path id="Path_399" data-name="Path 399" class="cls-4" d="M71.07,238.23,51.43,194.12A6.46,6.46,0,0,1,60,185.6l26.45,11.92,8.85-27.63a6.45,6.45,0,0,1,12-.66L127,213.34a6.46,6.46,0,0,1-11.8,5.25L102.43,190l-5.89,18.39a6.47,6.47,0,0,1-8.12,4.19c-.23-.08-.46-.17-.68-.27l-17.62-7.93L82.88,233a6.46,6.46,0,0,1-11.81,5.26Z" transform="translate(-14.72 -61.6)"/><path id="Path_401" data-name="Path 401" class="cls-4" d="M149.93,201.36l-18.48-41.5c-2.2-5-5.78-5.86-9-4.41s-5,4.71-2.77,9.66l18.48,41.5c2.2,4.95,5.92,6.2,9.18,4.74S152.13,206.31,149.93,201.36Z" transform="translate(-14.72 -61.6)"/><path id="Path_402" data-name="Path 402" class="cls-4" d="M196.24,182.5a6.46,6.46,0,0,0-8.53-3.27l-16.15,7.19-17-38.21a6.46,6.46,0,1,0-11.8,5.26l19.64,44.1a6.45,6.45,0,0,0,8.52,3.28L193,191a6.46,6.46,0,0,0,3.28-8.53Z" transform="translate(-14.72 -61.6)"/><path id="Path_403" data-name="Path 403" class="cls-4" d="M239.07,168.43a6.46,6.46,0,0,0-3.71-8.35l-25.85-9.92,9.92-25.84a6.46,6.46,0,1,0-12.06-4.63L200.73,137l-3.48-7.8a6.46,6.46,0,0,0-11.8,5.25l19.64,44.11a6.46,6.46,0,0,0,11.8-5.25l-3.48-7.81,17.32,6.64a6.45,6.45,0,0,0,8.34-3.71Z" transform="translate(-14.72 -61.6)"/></g></g></svg>