<svg id="Layer_4" data-name="Layer 4" xmlns="http://www.w3.org/2000/svg" viewBox="0 0 330.31 232.03"><defs><style>.cls-1{opacity:0.3;}.cls-2{fill:#ffc3a9;}.cls-3{fill:#dc5126;}</style></defs><g id="_048-cereal" data-name=" 048-cereal" class="cls-1"><g id="Group_51" data-name="Group 51"><path id="Path_346" data-name="Path 346" class="cls-2" d="M72.49,93c18.5,9.15,24.44,33.83,24.44,33.83s-24.07,9.85-42.57.71S29.92,93.73,29.92,93.73,54,83.88,72.49,93Z" transform="translate(-12.84 -56.99)"/><path id="Path_347" data-name="Path 347" class="cls-2" d="M159.48,110.8c.94,20.4-18,38.09-18,38.09s-20.43-15.39-21.38-35.79S138.1,75,138.1,75,158.53,90.4,159.48,110.8Z" transform="translate(-12.84 -56.99)"/><path id="Path_348" data-name="Path 348" class="cls-2" d="M120.32,185.38c17.56-11.25,21.19-36.49,21.19-36.49s-24.84-7-42.4,4.26-21.19,36.49-21.19,36.49S102.76,196.63,120.32,185.38Z" transform="translate(-12.84 -56.99)"/><path id="Path_349" data-name="Path 349" class="cls-2" d="M218.68,140.06c.94,20.4-18,38.09-18,38.09s-20.44-15.39-21.38-35.79,18-38.09,18-38.09S217.73,119.66,218.68,140.06Z" transform="translate(-12.84 -56.99)"/><path id="Path_350" data-name="Path 350" class="cls-2" d="M179.52,214.64c17.57-11.25,21.2-36.49,21.2-36.49s-24.85-7-42.41,4.26-21.19,36.49-21.19,36.49S162,225.89,179.52,214.64Z" transform="translate(-12.84 -56.99)"/><path id="Path_351" data-name="Path 351" class="cls-2" d="M277.88,169.32c.95,20.4-18,38.09-18,38.09S239.48,192,238.54,171.62s18-38.09,18-38.09S276.94,148.92,277.88,169.32Z" transform="translate(-12.84 -56.99)"/><path id="Path_352" data-name="Path 352" class="cls-2" d="M238.73,243.9c17.56-11.25,21.19-36.49,21.19-36.49s-24.85-7-42.41,4.26-21.19,36.49-21.19,36.49S221.17,255.16,238.73,243.9Z" transform="translate(-12.84 -56.99)"/></g><g id="Group_52" data-name="Group 52"><path id="Path_353" data-name="Path 353" class="cls-3" d="M13.58,85.66a6.32,6.32,0,0,0,2.61,8.53l.2.1,8,3.95c2.34,7.4,9.88,26.62,27,35.07s37.55,3.06,45.09.54l15.4,7.61a46.51,46.51,0,0,0-16.26,6.32c-16.22,10.39-21.94,30.4-23.58,38l-7.58,4.85a6.41,6.41,0,0,0-2,8.83l.06.09a6.58,6.58,0,0,0,9.06,1.82l7.58-4.85c7.73,1.62,28.58,4.6,44.8-5.8,13.1-8.39,19.35-23.05,22.14-32.4l25,12.37A46.46,46.46,0,0,0,154.78,177c-16.22,10.39-21.94,30.4-23.59,38l-7.58,4.85a6.4,6.4,0,0,0-2,8.82l.06.1a6.61,6.61,0,0,0,9.07,1.83l7.57-4.86c7.74,1.62,28.58,4.6,44.8-5.8h0c13.1-8.39,19.35-23,22.14-32.4l25,12.37A46.66,46.66,0,0,0,214,206.3c-16.22,10.4-21.94,30.4-23.59,38l-7.57,4.85a6.41,6.41,0,0,0-2.06,8.83l.06.09a6.61,6.61,0,0,0,9.07,1.83l7.57-4.86c7.74,1.62,28.58,4.6,44.8-5.8h0c13.1-8.39,19.35-23,22.14-32.4l34.48,17a161.72,161.72,0,0,1-31.11,22.6c-31.35,17.54-65.07,23.4-100.24,17.42a6.66,6.66,0,0,0-7.66,5.25,6.33,6.33,0,0,0,5.06,7.4l.18,0A164.9,164.9,0,0,0,274.63,267.4,170.94,170.94,0,0,0,311.18,240l22.39,11.07a6.71,6.71,0,0,0,8.85-2.87,6.32,6.32,0,0,0-2.62-8.54l-.19-.1-22.4-11.07a159.44,159.44,0,0,0,2-37.41,161.15,161.15,0,0,0-7.52-39.81,151.14,151.14,0,0,0-25.62-47.68,6.63,6.63,0,0,0-9.21-1,6.38,6.38,0,0,0-1.26,8.93l.08.12c22.71,28.48,29.07,59.2,30.4,80a151.58,151.58,0,0,1-1.14,30.85l-34.48-17c6.16-7.69,14.7-21.21,14-36.42a40.58,40.58,0,0,0-2-10.75c-4.41-13.55-14.79-23.73-19.5-27.83l-.41-8.8a6.66,6.66,0,0,0-.3-1.65,6.46,6.46,0,0,0-6.56-4.39,6.6,6.6,0,0,0-6.26,6.81l.41,8.8c-5.4,5.78-18.71,22-17.84,40.87a43.27,43.27,0,0,0,4.29,16.47l-25-12.37c6.15-7.69,14.7-21.21,14-36.42a40.58,40.58,0,0,0-2-10.75c-4.4-13.55-14.78-23.73-19.5-27.83l-.41-8.79a6.66,6.66,0,0,0-.3-1.66,6.46,6.46,0,0,0-6.56-4.39,6.6,6.6,0,0,0-6.26,6.81l.41,8.8c-5.39,5.78-18.7,22-17.83,40.87a43.26,43.26,0,0,0,4.28,16.47l-25-12.37c6.16-7.69,14.7-21.21,14-36.43a41.4,41.4,0,0,0-2-10.74c-4.41-13.55-14.79-23.73-19.51-27.83l-.41-8.8a5.79,5.79,0,0,0-.3-1.65A6.44,6.44,0,0,0,137.26,57,6.6,6.6,0,0,0,131,63.81l.41,8.8c-5.39,5.78-18.7,22-17.83,40.87A43.09,43.09,0,0,0,117.87,130l-15.4-7.61-.15-.48C99.8,114.13,92.23,95.54,75.5,87.27,58.42,78.82,38,84.21,30.42,86.72l-8-3.94A6.7,6.7,0,0,0,13.58,85.66ZM245.1,171.24c-.54-11.64,6.92-22.67,11.81-28.59,5.41,5.35,13.88,15.5,14.41,27s-6.92,22.67-11.81,28.59C254.1,193,245.63,182.79,245.1,171.24ZM185.89,142c-.53-11.64,6.93-22.67,11.82-28.59,5.41,5.35,13.88,15.5,14.41,27.05S205.2,163.11,200.31,169c-5.41-5.35-13.88-15.5-14.42-27.05Zm-59.2-29.27c-.54-11.64,6.93-22.66,11.82-28.58,5.41,5.34,13.88,15.5,14.41,27.05s-6.92,22.67-11.81,28.59c-5.41-5.35-13.89-15.5-14.42-27.06Zm-9.9,67.3h0c-10,6.42-23.4,5.73-31,4.61,2.09-7.33,6.92-19.72,16.87-26.1s23.4-5.73,31-4.61C131.57,161.24,126.74,173.63,116.79,180ZM176,209.27h0c-10,6.42-23.4,5.73-31,4.62,2.08-7.34,6.92-19.73,16.87-26.11s23.4-5.73,31-4.61c-2.09,7.33-6.92,19.72-16.87,26.1Zm59.2,29.26h0c-10,6.43-23.42,5.73-31,4.61,2.06-7.32,6.86-19.67,16.89-26.1s23.42-5.73,31-4.61C250,219.75,245.22,232.1,235.19,238.53ZM69.46,98.78c10.57,5.22,16.49,17,19.21,24-7.47,2-20.72,4.25-31.29-1s-16.49-17-19.21-24C45.64,95.81,58.9,93.56,69.46,98.78Z" transform="translate(-12.84 -56.99)"/><path id="Path_354" data-name="Path 354" class="cls-3" d="M258.52,92.28l.69.42a6.7,6.7,0,0,0,9.06-2.11,6.32,6.32,0,0,0-1.84-8.74,1.18,1.18,0,0,0-.19-.11l-.69-.42a6.67,6.67,0,0,0-9.05,2.11,6.3,6.3,0,0,0,1.83,8.73Z" transform="translate(-12.84 -56.99)"/></g></g></svg>